<svg id="visual" viewBox="0 0 1920 1080" width="1920" height="1080" xmlns="http://www.w3.org/2000/svg" xmlns:xlink="http://www.w3.org/1999/xlink" version="1.1"><path d="M0 684L45.7 688C91.3 692 182.7 700 274.2 708.3C365.7 716.7 457.3 725.3 548.8 723.3C640.3 721.3 731.7 708.7 823 716.2C914.3 723.7 1005.7 751.3 1097 754.7C1188.3 758 1279.7 737 1371.2 713.7C1462.7 690.3 1554.3 664.7 1645.8 678.2C1737.3 691.7 1828.7 744.3 1874.3 770.7L1920 797L1920 1081L1874.3 1081C1828.7 1081 1737.3 1081 1645.8 1081C1554.3 1081 1462.7 1081 1371.2 1081C1279.7 1081 1188.3 1081 1097 1081C1005.7 1081 914.3 1081 823 1081C731.7 1081 640.3 1081 548.8 1081C457.3 1081 365.7 1081 274.2 1081C182.7 1081 91.3 1081 45.7 1081L0 1081Z" fill="#6999fa"></path><path d="M0 829L45.7 817C91.3 805 182.7 781 274.2 785.2C365.7 789.3 457.3 821.7 548.8 815.7C640.3 809.7 731.7 765.3 823 741.2C914.3 717 1005.7 713 1097 711.7C1188.3 710.3 1279.7 711.7 1371.2 712.8C1462.7 714 1554.3 715 1645.8 732.7C1737.3 750.3 1828.7 784.7 1874.3 801.8L1920 819L1920 1081L1874.3 1081C1828.7 1081 1737.3 1081 1645.8 1081C1554.3 1081 1462.7 1081 1371.2 1081C1279.7 1081 1188.3 1081 1097 1081C1005.7 1081 914.3 1081 823 1081C731.7 1081 640.3 1081 548.8 1081C457.3 1081 365.7 1081 274.2 1081C182.7 1081 91.3 1081 45.7 1081L0 1081Z" fill="#537ff1"></path><path d="M0 799L45.7 815.7C91.3 832.3 182.7 865.7 274.2 871.3C365.7 877 457.3 855 548.8 846.3C640.3 837.7 731.7 842.3 823 835C914.3 827.7 1005.7 808.3 1097 817.2C1188.3 826 1279.7 863 1371.2 870.3C1462.7 877.7 1554.3 855.3 1645.8 846.8C1737.3 838.3 1828.7 843.7 1874.3 846.3L1920 849L1920 1081L1874.3 1081C1828.7 1081 1737.3 1081 1645.8 1081C1554.3 1081 1462.7 1081 1371.2 1081C1279.7 1081 1188.3 1081 1097 1081C1005.7 1081 914.3 1081 823 1081C731.7 1081 640.3 1081 548.8 1081C457.3 1081 365.7 1081 274.2 1081C182.7 1081 91.3 1081 45.7 1081L0 1081Z" fill="#4464e6"></path><path d="M0 957L45.7 954.2C91.3 951.3 182.7 945.7 274.2 934.3C365.7 923 457.3 906 548.8 909.2C640.3 912.3 731.7 935.7 823 934C914.3 932.3 1005.7 905.7 1097 903.5C1188.3 901.3 1279.7 923.7 1371.2 925.8C1462.7 928 1554.3 910 1645.8 898.7C1737.3 887.3 1828.7 882.7 1874.3 880.3L1920 878L1920 1081L1874.3 1081C1828.7 1081 1737.3 1081 1645.8 1081C1554.3 1081 1462.7 1081 1371.2 1081C1279.7 1081 1188.3 1081 1097 1081C1005.7 1081 914.3 1081 823 1081C731.7 1081 640.3 1081 548.8 1081C457.3 1081 365.7 1081 274.2 1081C182.7 1081 91.3 1081 45.7 1081L0 1081Z" fill="#3d47d8"></path><path d="M0 956L45.7 968.7C91.3 981.3 182.7 1006.7 274.2 1011.2C365.7 1015.7 457.3 999.3 548.8 995.5C640.3 991.7 731.7 1000.3 823 994.8C914.3 989.3 1005.7 969.7 1097 962.8C1188.3 956 1279.7 962 1371.2 972C1462.7 982 1554.3 996 1645.8 995.3C1737.3 994.7 1828.7 979.3 1874.3 971.7L1920 964L1920 1081L1874.3 1081C1828.7 1081 1737.3 1081 1645.8 1081C1554.3 1081 1462.7 1081 1371.2 1081C1279.7 1081 1188.3 1081 1097 1081C1005.7 1081 914.3 1081 823 1081C731.7 1081 640.3 1081 548.8 1081C457.3 1081 365.7 1081 274.2 1081C182.7 1081 91.3 1081 45.7 1081L0 1081Z" fill="#3d24c7"></path></svg>